<?xml version="1.0" encoding="UTF-8"?>
<svg xmlns="http://www.w3.org/2000/svg" viewBox="0 0 64 64" fill="none" aria-hidden="true">
  <path d="M12 38 L28 28 L44 38 L44 52 L12 52 Z" stroke="#C89B3C" stroke-width="2.25" stroke-linejoin="round"/>
  <path d="M12 38 L28 48 L44 38" stroke="#C89B3C" stroke-width="2.25" stroke-linejoin="round"/>
  <path d="M28 28 L28 48" stroke="#C89B3C" stroke-width="2.25"/>
  <path d="M32 22 L48 32 L48 46 L32 56 L16 46 L16 32 Z" stroke="#C89B3C" stroke-width="2.25" stroke-linejoin="round"/>
  <path d="M32 22 L48 32 L32 42 L16 32 Z" stroke="#C89B3C" stroke-width="2.25" stroke-linejoin="round"/>
  <path d="M32 22 L32 42" stroke="#C89B3C" stroke-width="2.25"/>
  <path d="M36 14 L52 24 L52 38 L36 48 L20 38 L20 24 Z" stroke="#C89B3C" stroke-width="2.25" stroke-linejoin="round"/>
  <path d="M36 14 L52 24 L36 34 L20 24 Z" stroke="#C89B3C" stroke-width="2.25" stroke-linejoin="round"/>
  <path d="M36 14 L36 34" stroke="#C89B3C" stroke-width="2.25"/>
</svg>
