<svg xmlns="http://www.w3.org/2000/svg" viewBox="0 0 64 64" fill="none" aria-hidden="true">
  <path d="M11 38 L20 29 L29 38 L29 45 L20 49 L11 45 Z" stroke="#0A2E73" stroke-width="2" stroke-linecap="round" stroke-linejoin="round"/>
  <path d="M11 38 V45 L20 49 V42" stroke="#0A2E73" stroke-width="2" stroke-linecap="round" stroke-linejoin="round"/>
  <path d="M29 38 V45 L20 49" stroke="#0A2E73" stroke-width="2" stroke-linecap="round" stroke-linejoin="round"/>
  <path d="M35 38 L44 29 L53 38 L53 45 L44 49 L35 45 Z" stroke="#0A2E73" stroke-width="2" stroke-linecap="round" stroke-linejoin="round"/>
  <path d="M35 38 V45 L44 49 V42" stroke="#0A2E73" stroke-width="2" stroke-linecap="round" stroke-linejoin="round"/>
  <path d="M53 38 V45 L44 49" stroke="#0A2E73" stroke-width="2" stroke-linecap="round" stroke-linejoin="round"/>
  <path d="M23 18 L32 9 L41 18 L41 25 L32 29 L23 25 Z" stroke="#0A2E73" stroke-width="2" stroke-linecap="round" stroke-linejoin="round"/>
  <path d="M23 18 V25 L32 29 V22" stroke="#0A2E73" stroke-width="2" stroke-linecap="round" stroke-linejoin="round"/>
  <path d="M41 18 V25 L32 29" stroke="#0A2E73" stroke-width="2" stroke-linecap="round" stroke-linejoin="round"/>
</svg>
