<svg xmlns="http://www.w3.org/2000/svg" viewBox="0 0 64 64" fill="none" aria-hidden="true">
  <path d="M12 40l9-5 9 5v10l-9 5-9-5V40z" stroke="#0A2E73" stroke-width="2" stroke-linecap="round" stroke-linejoin="round"/>
  <path d="M21 35l9-5 9 5" stroke="#C89B3C" stroke-width="2" stroke-linecap="round" stroke-linejoin="round"/>
  <path d="M30 30v10M39 35v10" stroke="#0A2E73" stroke-width="2" stroke-linecap="round" stroke-linejoin="round"/>
  <path d="M26 26l9-5 9 5v10l-9 5-9-5V26z" stroke="#0A2E73" stroke-width="2" stroke-linecap="round" stroke-linejoin="round"/>
  <path d="M35 21l9-5 9 5" stroke="#C89B3C" stroke-width="2" stroke-linecap="round" stroke-linejoin="round"/>
  <path d="M44 16v10M53 21v10" stroke="#0A2E73" stroke-width="2" stroke-linecap="round" stroke-linejoin="round"/>
  <path d="M8 48l9-5 9 5v10l-9 5-9-5V48z" stroke="#0A2E73" stroke-width="2" stroke-linecap="round" stroke-linejoin="round"/>
  <path d="M17 43l9-5 9 5" stroke="#C89B3C" stroke-width="2" stroke-linecap="round" stroke-linejoin="round"/>
  <path d="M26 38v10M35 43v10" stroke="#0A2E73" stroke-width="2" stroke-linecap="round" stroke-linejoin="round"/>
</svg>
