<?xml version="1.0" encoding="UTF-8"?>
<svg xmlns="http://www.w3.org/2000/svg" viewBox="0 0 64 64" fill="none" aria-hidden="true">
  <path d="M32 48V28" stroke="#C89B3C" stroke-width="2.25" stroke-linecap="round"/>
  <path d="M32 28c-8-6-14-2-14 6 0 6 6 10 14 10s14-4 14-10c0-8-6-12-14-6z" stroke="#C89B3C" stroke-width="2.25" stroke-linejoin="round"/>
  <path d="M24 22c-4-6-2-12 4-12 4 0 6 4 4 10" stroke="#C89B3C" stroke-width="2.25" stroke-linecap="round"/>
  <path d="M40 22c4-6 2-12-4-12-4 0-6 4-4 10" stroke="#C89B3C" stroke-width="2.25" stroke-linecap="round"/>
  <path d="M8 52h48" stroke="#C89B3C" stroke-width="2.25" stroke-linecap="round"/>
  <path d="M12 56h40" stroke="#C89B3C" stroke-width="2" stroke-linecap="round" opacity="0.7"/>
  <path d="M16 60h32" stroke="#C89B3C" stroke-width="1.5" stroke-linecap="round" opacity="0.5"/>
</svg>
