<?xml version="1.0" encoding="UTF-8"?>
<svg xmlns="http://www.w3.org/2000/svg" viewBox="0 0 64 64" fill="none" aria-hidden="true">
  <circle cx="48" cy="16" r="10" stroke="#C89B3C" stroke-width="2.25"/>
  <path d="M48 6v4M48 22v4M38 16h4M54 16h4M41 9l3 3M54 23l3 3M41 23l3-3M54 9l3-3" stroke="#C89B3C" stroke-width="2" stroke-linecap="round"/>
  <path d="M20 48c0-8 4-18 8-22s8 2 8 10" stroke="#C89B3C" stroke-width="2.25" stroke-linecap="round"/>
  <path d="M20 48c0-6 4-14 8-18" stroke="#C89B3C" stroke-width="2.25" stroke-linecap="round"/>
  <path d="M36 44c0-10 4-20 10-24s10 4 10 14" stroke="#C89B3C" stroke-width="2.25" stroke-linecap="round"/>
  <path d="M36 44c0-8 4-16 10-20" stroke="#C89B3C" stroke-width="2.25" stroke-linecap="round"/>
  <path d="M8 52h48" stroke="#C89B3C" stroke-width="2.25" stroke-linecap="round"/>
</svg>
