<svg xmlns="http://www.w3.org/2000/svg" viewBox="0 0 64 64" fill="none" aria-hidden="true">
  <circle cx="48" cy="16" r="7" stroke="#C89B3C" stroke-width="2"/>
  <path d="M48 9v2M48 21v2M41 16h2M53 16h2M43.5 11.5l1.4 1.4M52.1 20.1l1.4 1.4M43.5 20.5l1.4-1.4M52.1 11.9l1.4-1.4" stroke="#C89B3C" stroke-width="2" stroke-linecap="round"/>
  <path d="M18 48V30" stroke="#0A2E73" stroke-width="2" stroke-linecap="round" stroke-linejoin="round"/>
  <path d="M18 30c-6-2-10 0-12 4M18 26c4-6 10-8 14-4M18 34c6 2 12 0 14-4" stroke="#0A2E73" stroke-width="2" stroke-linecap="round" stroke-linejoin="round"/>
  <path d="M8 50c6-3 12-3 18 0s12 3 18 0s12-3 18 0" stroke="#0A2E73" stroke-width="2" stroke-linecap="round" stroke-linejoin="round"/>
  <path d="M6 54c8-2 16-2 24 0s16 2 24 0" stroke="#0A2E73" stroke-width="2" stroke-linecap="round" stroke-linejoin="round" opacity="0.45"/>
</svg>
