<svg xmlns="http://www.w3.org/2000/svg" viewBox="0 0 64 64" fill="none" aria-hidden="true">
  <path d="M16 52 C16 44 14 36 18 28 C20 24 22 20 24 16" stroke="#0A2E73" stroke-width="2" stroke-linecap="round" stroke-linejoin="round"/>
  <path d="M24 16 L20 8 L24 14" stroke="#0A2E73" stroke-width="2" stroke-linecap="round" stroke-linejoin="round"/>
  <path d="M24 16 L16 12 L22 16" stroke="#0A2E73" stroke-width="2" stroke-linecap="round" stroke-linejoin="round"/>
  <path d="M24 16 L24 6 L26 14" stroke="#0A2E73" stroke-width="2" stroke-linecap="round" stroke-linejoin="round"/>
  <path d="M24 16 L32 10 L26 16" stroke="#0A2E73" stroke-width="2" stroke-linecap="round" stroke-linejoin="round"/>
  <path d="M24 16 L30 18 L26 16" stroke="#0A2E73" stroke-width="2" stroke-linecap="round" stroke-linejoin="round"/>
  <circle cx="46" cy="14" r="7" stroke="#0A2E73" stroke-width="2" stroke-linecap="round" stroke-linejoin="round"/>
  <path d="M8 50 C14 47 20 53 26 50 C32 47 38 53 44 50 C50 47 56 53 58 50" stroke="#0A2E73" stroke-width="2" stroke-linecap="round" stroke-linejoin="round"/>
  <path d="M6 54 C12 51 18 57 24 54 C30 51 36 57 42 54 C48 51 54 57 58 54" stroke="#0A2E73" stroke-width="2" stroke-linecap="round" stroke-linejoin="round"/>
  <path d="M10 58 C16 55 22 61 28 58 C34 55 40 61 46 58 C52 55 56 61 58 58" stroke="#0A2E73" stroke-width="2" stroke-linecap="round" stroke-linejoin="round"/>
</svg>
