<?xml version="1.0" encoding="UTF-8"?>
<svg xmlns="http://www.w3.org/2000/svg" viewBox="0 0 512 512" role="img" aria-label="Zanzibaba Group icon">
  <title>Zanzibaba Group</title>
  <rect width="512" height="512" fill="#ffffff"/>
  <g transform="translate(256 268) scale(4.8)">
    <path d="M -36 28 C -36 2, 0 -22, 36 28" fill="none" stroke="#0A2E73" stroke-width="9" stroke-linecap="round"/>
    <g transform="translate(0 -6)">
      <path d="M0 -17 L4.2 -5.2 L17 0 L4.2 5.2 L0 17 L-4.2 5.2 L-17 0 L-4.2 -5.2 Z" fill="#C89B3C"/>
      <path d="M0 -9 L2.2 -2.8 L9 0 L2.2 2.8 L0 9 L-2.2 2.8 L-9 0 L-2.2 -2.8 Z" fill="#0A2E73" opacity="0.15"/>
      <circle r="2.8" fill="#C89B3C"/>
    </g>
    <path d="M -22 14 Q 0 18 22 14" fill="none" stroke="#0A2E73" stroke-width="1.4" opacity="0.55"/>
    <path d="M -20 18 Q 0 22 20 18" fill="none" stroke="#0A2E73" stroke-width="1.2" opacity="0.38"/>
    <path d="M -18 22 Q 0 25 18 22" fill="none" stroke="#0A2E73" stroke-width="1" opacity="0.22"/>
  </g>
</svg>
