<?xml version="1.0" encoding="UTF-8"?>
<svg xmlns="http://www.w3.org/2000/svg" viewBox="0 0 800 200" role="img" aria-label="Zanzibaba Group monochrome logo">
  <title>Zanzibaba Group Monochrome</title>
  <defs>
    <style>
      .wordmark-serif { font-family: "Cormorant Garamond", Georgia, serif; font-weight: 700; fill: #000000; letter-spacing: 0.14em; }
      .wordmark-sans { font-family: "DM Sans", Inter, sans-serif; font-weight: 500; fill: #000000; letter-spacing: 0.38em; }
    </style>
  </defs>
  <rect width="800" height="200" fill="#ffffff"/>
  <g transform="translate(88 118) scale(1.35)">
    <path d="M -36 28 C -36 2, 0 -22, 36 28" fill="none" stroke="#000000" stroke-width="9" stroke-linecap="round"/>
    <g transform="translate(0 -6)">
      <path d="M0 -17 L4.2 -5.2 L17 0 L4.2 5.2 L0 17 L-4.2 5.2 L-17 0 L-4.2 -5.2 Z" fill="#000000"/>
      <circle r="2.8" fill="#000000"/>
    </g>
    <path d="M -22 14 Q 0 18 22 14" fill="none" stroke="#000000" stroke-width="1.4" opacity="0.45"/>
    <path d="M -20 18 Q 0 22 20 18" fill="none" stroke="#000000" stroke-width="1.2" opacity="0.3"/>
    <path d="M -18 22 Q 0 25 18 22" fill="none" stroke="#000000" stroke-width="1" opacity="0.2"/>
  </g>
  <text x="200" y="92" class="wordmark-serif" font-size="52">ZANZIBABA</text>
  <line x1="200" y1="118" x2="268" y2="118" stroke="#000000" stroke-width="1.2"/>
  <text x="288" y="118" class="wordmark-sans" font-size="22">GROUP</text>
  <line x1="388" y1="118" x2="456" y2="118" stroke="#000000" stroke-width="1.2"/>
</svg>
