<?xml version="1.0" encoding="UTF-8"?>
<svg xmlns="http://www.w3.org/2000/svg" viewBox="0 0 300 400" role="img" aria-label="Zanzibaba Group stacked logo">
  <title>Zanzibaba Group</title>
  <defs>
    <style>
      .wordmark-serif { font-family: "Cormorant Garamond", Georgia, serif; font-weight: 700; fill: #0A2E73; letter-spacing: 0.16em; }
      .wordmark-sans { font-family: "DM Sans", Inter, sans-serif; font-weight: 500; fill: #C89B3C; letter-spacing: 0.4em; }
    </style>
  </defs>
  <g transform="translate(150 118) scale(1.55)">
    <path d="M -36 28 C -36 2, 0 -22, 36 28" fill="none" stroke="#0A2E73" stroke-width="9" stroke-linecap="round"/>
    <g transform="translate(0 -6)">
      <path d="M0 -17 L4.2 -5.2 L17 0 L4.2 5.2 L0 17 L-4.2 5.2 L-17 0 L-4.2 -5.2 Z" fill="#C89B3C"/>
      <circle r="2.8" fill="#C89B3C"/>
    </g>
    <path d="M -22 14 Q 0 18 22 14" fill="none" stroke="#0A2E73" stroke-width="1.4" opacity="0.55"/>
    <path d="M -20 18 Q 0 22 20 18" fill="none" stroke="#0A2E73" stroke-width="1.2" opacity="0.38"/>
    <path d="M -18 22 Q 0 25 18 22" fill="none" stroke="#0A2E73" stroke-width="1" opacity="0.22"/>
  </g>
  <text x="150" y="248" text-anchor="middle" class="wordmark-serif" font-size="36">ZANZIBABA</text>
  <line x1="72" y1="278" x2="118" y2="278" stroke="#C89B3C" stroke-width="1.2"/>
  <text x="150" y="282" text-anchor="middle" class="wordmark-sans" font-size="14">GROUP</text>
  <line x1="182" y1="278" x2="228" y2="278" stroke="#C89B3C" stroke-width="1.2"/>
</svg>
